<svg width="18" height="18" viewBox="0 0 18 18" fill="none" xmlns="http://www.w3.org/2000/svg">
<g id="child">
<path id="Oval" d="M1.09091 2.18182C1.6934 2.18182 2.18182 1.6934 2.18182 1.09091C2.18182 0.488417 1.6934 0 1.09091 0C0.488417 0 0 0.488417 0 1.09091C0 1.6934 0.488417 2.18182 1.09091 2.18182Z" transform="translate(5.36365 9.72729)" fill="#657786"/>
<path id="Oval_2" d="M1.09091 2.18182C1.6934 2.18182 2.18182 1.6934 2.18182 1.09091C2.18182 0.488417 1.6934 0 1.09091 0C0.488417 0 0 0.488417 0 1.09091C0 1.6934 0.488417 2.18182 1.09091 2.18182Z" transform="translate(10.4545 9.72729)" fill="#657786"/>
<path id="Shape" fill-rule="evenodd" clip-rule="evenodd" d="M16 6.54545C16 5.464 15.2109 4.57236 14.1782 4.4C13.2895 1.84 10.8625 0 8 0C5.13745 0 2.71055 1.84 1.82182 4.4C0.789091 4.57236 0 5.464 0 6.54545C0 7.62691 0.789091 8.51855 1.82182 8.69091C2.71055 11.2509 5.13745 13.0909 8 13.0909C10.8625 13.0909 13.2895 11.2509 14.1782 8.69091C15.2109 8.51855 16 7.62691 16 6.54545Z" transform="translate(1 3.18176)" stroke="#667580" stroke-width="1.5" stroke-linecap="round" stroke-linejoin="round"/>
<path id="Shape_2" d="M0.0158383 4.36364C-0.16598 1.75782 1.2282 0.151273 3.6522 0" transform="translate(8.98419 1)" stroke="#667580" stroke-width="1.5" stroke-linecap="round" stroke-linejoin="round"/>
</g>
</svg>
