<svg width="23" height="22" viewBox="0 0 23 22" fill="none" xmlns="http://www.w3.org/2000/svg">
<path id="icon" fill-rule="evenodd" clip-rule="evenodd" d="M10.4603 0C9.61631 0 0.11851 8.563 0.0245098 9.844C-0.16249 10.907 0.76451 11.125 1.31251 10.768C1.78151 10.518 2.95251 10.229 2.95251 10.229C2.95251 10.229 4.34951 17.016 5.21251 18.771C6.43151 19.49 14.3065 19.49 15.5245 18.771C16.6815 17.917 18.0565 10.209 18.0565 10.209C18.0565 10.209 18.9565 10.518 19.4245 10.768C19.9725 11.125 21.0875 10.865 20.8995 9.802C20.3995 8.375 11.3043 0 10.4603 0ZM8.21252 8.68794C8.21252 7.44594 9.21952 6.43994 10.4605 6.43994C11.7025 6.43994 12.7085 7.44594 12.7085 8.68794C12.7085 9.92894 11.7025 10.9359 10.4605 10.9359C9.21952 10.9359 8.21252 9.92894 8.21252 8.68794Z" transform="translate(1 1.5)" stroke="#667580" stroke-width="2"/>
</svg>
