<svg width="18" height="18" viewBox="0 0 18 18" fill="none" xmlns="http://www.w3.org/2000/svg">
<g id="image-02">
<path id="Shape" d="M0 6L4 2L7 5L11 0L15 4" transform="translate(1.5 7.5)" stroke="#657786" stroke-width="1.5" stroke-linecap="round" stroke-linejoin="round"/>
<path id="Shape_2" fill-rule="evenodd" clip-rule="evenodd" d="M14 15H1C0.448 15 0 14.552 0 14V1C0 0.448 0.448 0 1 0H14C14.552 0 15 0.448 15 1V14C15 14.552 14.552 15 14 15Z" transform="translate(1.5 1.5)" stroke="#657786" stroke-width="1.5" stroke-linecap="round" stroke-linejoin="round"/>
<path id="Oval" d="M1.5 3C2.32843 3 3 2.32843 3 1.5C3 0.671573 2.32843 0 1.5 0C0.671573 0 0 0.671573 0 1.5C0 2.32843 0.671573 3 1.5 3Z" transform="translate(6 4)" fill="#657786"/>
</g>
</svg>
