<svg width="14" height="17" viewBox="0 0 14 17" fill="none" xmlns="http://www.w3.org/2000/svg">
<g id="Group">
<path id="Shape" fill-rule="evenodd" clip-rule="evenodd" d="M0 7C0 3.09998 3.09998 0 7 0C10.9 0 14 3.09998 13.9 7C13.9 8.90002 13.2 10.7 11.8 12C11.8 12.0747 9.5105 14.1039 8.31152 15.1665C7.90601 15.5259 7.62524 15.7748 7.59998 15.8C7.29999 16.1 6.70001 16.1 6.29999 15.8C6.24976 15.7498 5.2157 14.8167 4.1861 13.8875C3.16577 12.9667 2.14978 12.0498 2.09998 12C0.700012 10.7 0 8.90002 0 7ZM7 13.6L10.4 10.6C11.4 9.69995 12 8.40002 12 7C12 4.19995 9.79999 2 7 2C4.20001 2 2 4.19995 2 7C2 8.40002 2.59998 9.69995 3.59998 10.6L7 13.6Z" fill="#657786"/>
<path id="Oval 3" fill-rule="evenodd" clip-rule="evenodd" d="M2 4C3.10457 4 4 3.10457 4 2C4 0.89543 3.10457 0 2 0C0.89543 0 0 0.89543 0 2C0 3.10457 0.89543 4 2 4Z" transform="translate(5 5)" fill="#657786"/>
</g>
</svg>
