<svg width="18" height="16" viewBox="0 0 18 16" fill="none" xmlns="http://www.w3.org/2000/svg">
<g id="icon">
<path id="Shape" d="M8.5002 3.86686L15.5296 0.117844C16.0169 -0.142054 16.6227 0.0422991 16.8826 0.529609C17.1424 1.01692 16.9581 1.62265 16.4708 1.88255L8.97079 5.88255C8.67667 6.03941 8.32373 6.03941 8.02961 5.88255L0.529609 1.88255C0.0422991 1.62265 -0.142054 1.01692 0.117844 0.529609C0.377743 0.0422991 0.983476 -0.142054 1.47079 0.117844L8.5002 3.86686Z" transform="translate(0.499756 3.99976)" fill="#667580"/>
<path id="Shape_2" fill-rule="evenodd" clip-rule="evenodd" d="M2 15H15C16.1042 15 17 14.1042 17 13V2C17 0.895752 16.1042 0 15 0H2C0.895752 0 0 0.895752 0 2V13C0 14.1042 0.895752 15 2 15ZM15 2V13H2V2H15Z" transform="translate(0.5 0.5)" fill="#667580"/>
</g>
</svg>
