<svg width="6" height="18" viewBox="0 0 6 18" fill="none" xmlns="http://www.w3.org/2000/svg">
<g id="icon/more">
<path id="Oval" fill-rule="evenodd" clip-rule="evenodd" d="M2 4C3.10457 4 4 3.10457 4 2C4 0.89543 3.10457 0 2 0C0.89543 0 0 0.89543 0 2C0 3.10457 0.89543 4 2 4Z" transform="translate(1 1)" stroke="#667580"/>
<path id="Oval_2" fill-rule="evenodd" clip-rule="evenodd" d="M2 4C3.10457 4 4 3.10457 4 2C4 0.89543 3.10457 0 2 0C0.89543 0 0 0.89543 0 2C0 3.10457 0.89543 4 2 4Z" transform="translate(1 7)" stroke="#667580"/>
<path id="Oval_3" fill-rule="evenodd" clip-rule="evenodd" d="M2 4C3.10457 4 4 3.10457 4 2C4 0.89543 3.10457 0 2 0C0.89543 0 0 0.89543 0 2C0 3.10457 0.89543 4 2 4Z" transform="translate(1 13)" stroke="#667580"/>
</g>
</svg>
