<svg width="16" height="20" viewBox="0 0 16 20" fill="none" xmlns="http://www.w3.org/2000/svg">
<path fill-rule="evenodd" clip-rule="evenodd" d="M14 13.5V8.5C14 5.42993 12.37 2.86011 9.5 2.17993V1.5C9.5 0.669922 8.83002 0 8 0C7.16998 0 6.5 0.669922 6.5 1.5V2.17993C3.64001 2.86011 2 5.41992 2 8.5V13.5L0 15.5V16.5H16V15.5L14 13.5ZM8 19.5C9.09998 19.5 10 18.6001 10 17.5H6C6 18.6001 6.90002 19.5 8 19.5ZM4 14.5H12V8.5C12 6.02002 10.49 4 8 4C5.51001 4 4 6.02002 4 8.5V14.5Z" transform="translate(0 0.5)" fill="#667580"/>
</svg>
