<svg width="15" height="16" viewBox="0 0 15 16" fill="none" xmlns="http://www.w3.org/2000/svg">
<path id="icon" fill-rule="evenodd" clip-rule="evenodd" d="M3.77301 8.14429L5.89301 10.2653L7.30701 8.8512L5.18597 6.73022C5.12 6.66431 5.10699 6.58826 5.10699 6.53625C5.10699 6.48523 5.12 6.41028 5.18701 6.34326L9.461 2.07019C9.62201 1.91028 9.745 1.91028 9.90601 2.07019L11.929 4.09229C12.006 4.16919 12.018 4.26123 12.018 4.30823C12.018 4.36621 12.003 4.4502 11.929 4.52319L10.664 5.78931L12.078 7.20227L13.343 5.93726C13.778 5.5022 14.018 4.92322 14.018 4.30823C14.018 3.69324 13.779 3.11426 13.343 2.67822L11.321 0.65625C10.447 -0.21875 8.91998 -0.21875 8.047 0.65625L3.77197 4.9292C3.34302 5.35925 3.10699 5.9303 3.10699 6.53625C3.10699 7.14429 3.34302 7.71521 3.77301 8.14429ZM0.674988 12.6204L2.698 14.6423C3.13501 15.0803 3.716 15.3203 4.33502 15.3203C4.95398 15.3203 5.53497 15.0803 5.97198 14.6423L10.245 10.3683C10.675 9.94031 10.911 9.36829 10.911 8.76135C10.911 8.1543 10.675 7.58228 10.246 7.1543L8.125 5.0343L6.711 6.44824L8.83197 8.56836C8.89801 8.63428 8.91101 8.70935 8.91101 8.76135C8.91101 8.81335 8.89801 8.88831 8.83099 8.95532L4.55701 13.2283C4.39697 13.3883 4.27301 13.3883 4.112 13.2283L2.08899 11.2063C2.01501 11.1323 2 11.0483 2 10.9913C2 10.9443 2.01202 10.8523 2.08899 10.7753L3.354 9.51025L1.94 8.09631L0.674988 9.36133C0.23999 9.79626 0 10.3752 0 10.9913C0 11.6063 0.23999 12.1853 0.674988 12.6204Z" transform="translate(0.254028 0.233765)" fill="#657786"/>
</svg>
