<svg width="16" height="16" viewBox="0 0 16 16" fill="none" xmlns="http://www.w3.org/2000/svg">
<path id="icon" fill-rule="evenodd" clip-rule="evenodd" d="M16 8C16 12.4183 12.4183 16 8 16C3.58173 16 0 12.4183 0 8C0 3.58167 3.58173 0 8 0C12.4183 0 16 3.58167 16 8ZM14.5 8C14.5 11.5898 11.5898 14.5 8 14.5C4.41016 14.5 1.5 11.5898 1.5 8C1.5 4.41016 4.41016 1.5 8 1.5C11.5898 1.5 14.5 4.41016 14.5 8ZM7.80804 3C7.38849 3 7.04834 3.34009 7.04834 3.75977V7.72107C7.04803 7.73047 7.04785 7.73987 7.04785 7.74927C7.04785 8.18945 7.40472 8.54639 7.84497 8.54639H10.7458C11.1861 8.54639 11.543 8.18945 11.543 7.74927C11.543 7.30908 11.1861 6.95215 10.7458 6.95215H8.56775V3.75977C8.56775 3.34009 8.2276 3 7.80804 3Z" fill="#66757F"/>
</svg>
