<svg width="12" height="12" viewBox="0 0 12 12" fill="none" xmlns="http://www.w3.org/2000/svg">
<path fill-rule="evenodd" clip-rule="evenodd" d="M0 6C0 2.69995 2.69995 0 6 0C9.30005 0 12 2.69995 12 6C12 9.30005 9.30005 12 6 12C2.69995 12 0 9.30005 0 6ZM3.07507 9.44995C3.90002 10.125 4.875 10.5 6 10.5C8.4751 10.5 10.5 8.4751 10.5 6C10.5 5.0249 10.2001 4.125 9.75 3.375C9 3.6001 7.65002 3.6001 7.5 3.6001C7.08374 3.6001 6.95032 3.36426 6.72595 2.96729C6.66736 2.86377 6.60266 2.74927 6.52502 2.625C6.44763 2.52173 6.33459 2.40063 6.21362 2.271C5.98303 2.02417 5.72339 1.74585 5.625 1.5C4.80005 1.57495 4.125 1.875 3.52502 2.25C4.05005 2.8501 4.57507 3.9751 4.05005 4.57495C3.85083 4.84058 3.46057 5.03271 3.0874 5.21631C2.61768 5.44775 2.17505 5.66553 2.17505 6C2.17505 6.31714 2.47314 6.67163 2.7804 7.03711C2.90906 7.19019 3.03931 7.34497 3.15002 7.5C3.6001 8.1001 3.52502 8.8501 3.07507 9.44995Z" fill="#657786"/>
<path d="M1.65475 0C0.754749 0 -0.070251 0.6 0.00474896 1.425C0.229749 3.3 -0.370251 3.975 0.454749 4.35C1.42975 4.725 3.37975 2.925 3.30475 1.425C3.30475 0.6 2.62975 0 1.65475 0Z" transform="translate(5.99524 5.0249)" fill="#657786"/>
</svg>
